<?xml version="1.0" standalone="no"?>
<!DOCTYPE svg PUBLIC "-//W3C//DTD SVG 20010904//EN"
 "http://www.w3.org/TR/2001/REC-SVG-20010904/DTD/svg10.dtd">
<svg version="1.0" xmlns="http://www.w3.org/2000/svg"
 width="50.000000pt" height="50.000000pt" viewBox="0 0 50.000000 50.000000"
 preserveAspectRatio="xMidYMid meet">

<g transform="translate(0.000000,50.000000) scale(0.100000,-0.100000)"
fill="#000000" stroke="none">
<path d="M380 455 c0 -42 -2 -45 -26 -45 -25 0 -25 -1 18 -51 l42 -50 42 48
c41 47 42 48 18 51 -21 3 -24 8 -24 48 0 44 0 44 -35 44 -35 0 -35 0 -35 -45z
m50 -19 c0 -26 5 -46 13 -49 8 -3 6 -11 -9 -26 l-20 -22 -20 22 c-14 16 -15
23 -6 26 7 3 12 22 12 49 0 32 4 44 15 44 11 0 15 -12 15 -44z"/>
<path d="M0 230 l0 -180 250 0 250 0 0 161 c0 104 -3 158 -10 154 -6 -4 -10
-57 -10 -126 l0 -120 -66 53 -66 53 31 26 c30 25 39 39 24 39 -5 0 -37 -25
-73 -55 -35 -30 -71 -55 -80 -55 -20 0 -224 174 -228 195 -3 13 18 15 142 15
91 0 146 4 146 10 0 6 -58 10 -155 10 l-155 0 0 -180z m93 47 l58 -53 -66 -52
-65 -53 0 106 c0 58 3 105 8 105 4 -1 33 -25 65 -53z m157 -117 c8 0 31 11 51
24 l36 24 69 -55 c38 -30 70 -61 72 -69 3 -12 -33 -14 -228 -14 -195 0 -231 2
-228 14 2 8 34 39 72 69 l69 55 36 -24 c20 -13 43 -24 51 -24z"/>
</g>
</svg>
