<svg enable-background="new 0 0 140 140" height="512" viewBox="0 0 140 140" width="512" xmlns="http://www.w3.org/2000/svg"><circle cx="70" cy="70" fill="#4abba4" r="63.991"/><path d="m132.7736359 82.3420868-58.44561-58.445797c-.0206299-.0219727-.0407104-.0424805-.0629883-.0629883l-.0363159-.0361328-.0022583.0107422c-.2078857-.1777344-.4697876-.2958984-.7667847-.2958984h-8.7799683c-.6500244 0-1.1799965.5302734-1.1799965 1.1801758v4.6396484c0 .2954102.1176147.5561523.293396.7636719l-.0117798.0073242.0509033.0507812c.0115356.012207.0227661.0234375.03479.0351562l1.2926674 1.2924805v1.0107422l-5.1300087 4.2797852c-4.7399902 4.0703125-6.5299683 9.0102539-7.1400146 12.8803711-.039978.25-.0700073.4897461-.0999756.7299805-.0200195.1201172-.0300293.2397461-.039978.3598633-.0200195.1699219-.0400391.3398438-.0500488.5-.0099487.1098633-.0199585.2299805-.0299683.3398438-.0200195.2299805-.0300293.4702148-.039978.6899414-.0100098.1000977-.0100098.1904297-.0100098.2802734-.0100098.1601562-.0100098.3198242-.0100098.4697266 0 .0800781-.0100098.1704102-.0100098.2402344 0 .2202148.0100098.4199219.0100098.6098633v.0400391c.039978 1.3803711.1900024 2.2099609.1900024 2.2099609v17.2602501c0 1.1201172.0599976 2.2397461.1699829 3.3598633.1099854 1.0297852.2700195 2.0600586.4700317 3.0800781.6799927 3.3598633 1.5899658 8.6899414 1.0699463 11.0498047-.7699585 3.5800781-2.2199707 8-1.9099731 12.75.2236328 3.4125977 1.6915894 7.3535156 4.1524048 9.9306641l-.0042114.0073242.2166748.2167969c.0394287.0385742.0777588.0791016.1176758.1171875l19.7413979 19.7412109c9.3494873-.9951172 18.6235962-4.0698242 27.1293335-9.394043 15.6019897-9.7661134 25.5260544-25.1596681 28.8206711-41.8989259z" opacity=".1"/><path d="m86.6187515 53.9130745c-.1349411-3.7110443-.6553497-6.4643745-2.6669006-10.6597252-2.7952805-5.8302002-10.7018814-10.7817574-10.7018814-10.7817574v-3.1147919h-8.0878296v3.140007l-5.1301689 4.2750244c-6.7993126 5.8360519-7.5260735 13.443512-7.4210815 17.141243h34.007862z" fill="#ededed"/><path d="m85.4708252 110.3398056c-3.6765518 8.386055-10.4927063 4.2342758-10.4927063 4.2342758l-1.2310333 1.0948792c-.594841.5286789-1.3632507.8219604-2.1605072.8219604h-.470993c-.9501495 0-1.8506775-.4171295-2.4661942-1.1360245l-1.2062225-1.3962326s-2.9825745 3.5732803-7.4110489 1.8629913c-4.4325562-1.7100906-7.1218452-7.464653-7.4316711-12.2028046-.3098221-4.7425842 1.1360283-9.1709061 1.9126587-12.7484207.5122414-2.3545532-.3924255-7.6877441-1.0699654-11.046196-.2065506-1.0204468-.3634796-2.0531998-.47089-3.0859528-.1115456-1.115448 5.4949188-3.0544815 5.4949188-4.1780014l-5.6643066-15.603775v-.8318901s-.5040207-2.7388077.0867882-6.4774857h33.2875557c.4213715 2.1978226.4833984 4.3789024.4875336 7.2457962.0040359.6113815-5.3093872 2.6500969-5.3093872 3.3276367v11.8222466c0 1.553154 5.201973 3.1588516 4.9788895 4.6954727-.0660629.475029-.1446304.9460144-.2313614 1.4170074-.7063904 3.80867-1.7101898 10.5009842-.7146606 13.4959564 1.4375837 4.3127444 3.7551191 10.3027041.0826032 18.6885607z" fill="#293b44"/><g fill="#de594e"><path d="m73.461441 30.5217495h-8.7782516c-.6544876 0-1.185051-.5305653-1.185051-1.185051v-4.6425724c0-.6544838.5305634-1.185051 1.185051-1.185051h8.7782516c.6544876 0 1.185051.5305672 1.185051 1.185051v4.6425724c0 .6544857-.5305634 1.185051-1.185051 1.185051z"/><path d="m86.6687775 58.8263092v13.2688293c0 1.5531616-.1114502 3.1065216-.3345337 4.6431427h-33.3619919c-.1115456-1.115448-.1693878-2.2349319-.1693878-3.3584595v-16.4868964h33.8618774c.004036.6113815.004036 1.2558403.004036 1.9333839z"/></g></svg>